<?xml version="1.0" encoding="UTF-8"?>
<svg id="Layer_2" data-name="Layer 2" xmlns="http://www.w3.org/2000/svg" viewBox="0 0 380.8 380.8">
  <defs>
    <style>
      .cls-1 {
        fill: #231f20;
      }
    </style>
  </defs>
  <path class="cls-1" d="M365.84,116.29c-9.59-22.67-23.32-43.03-40.8-60.52-17.48-17.48-37.84-31.21-60.52-40.8C241.04,5.04,216.1,0,190.4,0s-50.64,5.04-74.11,14.97c-22.67,9.59-43.03,23.32-60.52,40.8-17.48,17.48-31.21,37.85-40.8,60.52C5.03,139.76,0,164.7,0,190.4s5.03,50.64,14.96,74.11c9.59,22.67,23.32,43.04,40.8,60.52,17.49,17.48,37.85,31.21,60.52,40.8,23.48,9.93,48.41,14.96,74.11,14.96s50.64-5.03,74.11-14.96c22.67-9.59,43.04-23.32,60.52-40.8,17.48-17.48,31.21-37.85,40.8-60.52,9.93-23.48,14.96-48.41,14.96-74.11s-5.03-50.64-14.96-74.11ZM272.73,351.76c-1.76-1.27-3.86-2.73-6.21-4.07-1.29-.73-2.48-1.34-3.64-1.85-1.11-.5-2.29-.95-3.49-1.34l.16-1.23.23-2.04.2-2.09c.03-.44.08-1.11-.13-1.93-.22-.91-.8-1.78-1.54-2.34-.14-.11-.29-.21-.44-.3.14-.48.3-.98.47-1.43.23-.62.48-1.11.79-1.5.2-.26.51-.53.88-.84.14-.12.28-.24.39-.34.26-.21.55-.43.79-.59.3-.2.63-.4.97-.6l2.29-1.35c.72-.44,1.58-.97,2.45-1.61.76-.57,1.7-1.27,2.62-2.48l.35-.5c.1-.18.2-.37.28-.53.14-.25.24-.5.3-.71l.04-.1c.06-.17.11-.35.16-.52.18-.75.23-1.55.14-2.44-.14-1.18-.45-2.14-.71-2.91l-.12-.36c-.12-.36-.23-.7-.31-1.01-.08-.29-.1-.49-.11-.59v-.05s0-.16,0-.16c.01-.09.02-.18.02-.3.03-.11.06-.22.08-.34.03-.12.05-.23.11-.34l.04-.11c.15-.43.48-.94.81-1.44.5-.66.96-1.2,1.44-1.7.58-.61,1.2-1.22,1.86-1.87.59-.58,1.21-1.18,1.83-1.82.32-.33.66-.69.97-1.06.31-.34.61-.71.9-1.08l.07-.09c.15-.18.28-.37.41-.56l.25-.37c.12-.17.23-.33.33-.51.33-.55.6-1.09.81-1.61.68-1.65,1.03-3.23,1.34-4.62.07-.33.14-.65.22-.98.21-.92.4-1.61.59-2.16l.9-2.43,2.72-7.35.19-.49c.25-.65.53-1.39.78-2.25.37-1.2.51-2.65.39-3.86-.02-.17-.03-.34-.05-.5l51.19,19.61c-5.76,8.04-12.25,15.68-19.28,22.71-13.49,13.49-28.88,24.69-45.74,33.29ZM147.75,366.25c.28.14.56.28.84.42-4.81-1.14-9.61-2.49-14.32-4.02,4.75.36,9.36,1.59,13.48,3.6ZM246.21,302.38l.18.41c.17-.02.42-.06.67-.17l3.93-1.47c.16.33.31.66.46,1,.3.68.57,1.38.82,2.09-1.26.76-6.05,3.63-6.05,3.63-1.01.61-1.91,1.13-2.71,1.43-.05.02-.1.03-.15.05.16-.37.31-.73.43-1.05l.14-.37c.11-.26.21-.53.3-.78.47-1.32.89-2.73,1.26-4.22l.77-.12-.07-.43h0ZM144.35,350.5c-.1-.1-.17-.24-.2-.47l-.02-1.45c.01-.11.01-.22.01-.3l.22-6.29-.05-3.23c1.61.4,3.19.76,4.71,1.07,1.97.41,4.04.77,5.99,1.1,2.03.35,4.31.74,6.64,1.06l-.03,4.19.07,6.12c-.05.02-.11.04-.17.06-.34.13-.68.25-1.03.35-.68.21-1.4.39-2.12.53-1.2.23-2.42.35-3.64.35-.23,0-.47,0-.7-.01-2.87-.1-5.77-.9-8.37-2.3-.36-.19-.67-.37-.95-.55l-.25-.15h0s-.11-.09-.11-.09ZM150.56,332.48c-1.8-.38-3.69-.84-5.62-1.34-1.75-.46-3.58-.98-5.61-1.59-1.48-.43-2.98-.92-4.51-1.42l-1.53-.5c.72-.38,1.43-.78,2.14-1.19l.27.11c1.29.53,2.62,1.09,3.91,1.64,3.66,1.56,7.45,3.18,11.53,4.37.19.05.38.11.56.16-.38-.08-.76-.16-1.14-.24ZM90.37,304.63c.23-1.43.48-2.91.62-4.48.41-4.24-.34-8.7-2.12-12.57l-.09-.2c.13.07.27.15.42.25l.57.36,1.33.8c.16.09.32.17.48.26l.92.48.72.32c.53.25,1.09.46,1.51.62,1.91.72,3.98,1.23,6.14,1.52,1.81.24,3.74.35,5.91.35,2,0,4.02-.1,5.83-.19.48-.03.98-.05,1.43-.05.3,0,.56.01.81.04.24.02.48.07.68.13.14.04.28.11.4.18.03.02.05.04.08.05-.28.49-.97,1.26-1.24,1.55l-.26.29c-.57.64-1.21,1.37-1.81,2.31-.2.3-.37.62-.55,1.01l-.25.53-.17.5c-.11.33-.23.72-.31,1.21-.06.32-.12.64-.14.93-.14,1.44.01,2.72.16,3.69.13.79.28,1.53.43,2.26.22,1.05.42,2.04.48,2.86.02.34.03.64,0,.93v.22s-.04.3-.04.3c0,0-.06.5-.07.62-.1.77-.25,1.52-.44,2.25-.19.7-.44,1.42-.72,2.05-.3.63-.63,1.28-1.06,1.87-.34.52-.76.97-1.25,1.47l-.37.32c-.14.12-.27.23-.38.31l-.56.39c-.08.06-.15.11-.21.14l-.1.05c-1.35.82-3.05,1.25-4.91,1.25-1.01,0-2.04-.13-3.07-.38-1.37-.31-2.73-.89-3.95-1.67-.61-.39-1.2-.86-1.69-1.33-.04-.06-.08-.12-.13-.17-.12-.15-.27-.29-.38-.36-.31-.34-.6-.69-.86-1.04-.45-.63-.82-1.06-1.17-1.4-.1-.2-.19-.38-.26-.55-.56-1.36-.88-2.8-.95-4.29-.1-1.84.23-3.88.58-6.03ZM81.76,283.73c-.41.96-.54,2.11-.38,3.17.13.89.39,1.59.62,2.17.16.38.32.72.47,1.03l.17.36c1.32,2.83,1.86,5.96,1.57,9.08-.1,1.24-.31,2.53-.52,3.9-.07.44-.14.89-.21,1.35-1.89-.77-3.79-1.44-5.63-2.1-1.13-.4-2.24-.8-3.34-1.21-3.33-1.25-7.57-3.02-10.78-5.73-1.6-1.34-2.8-2.69-3.69-4.12-.97-1.57-1.58-3.24-1.76-4.85-.18-1.57.06-3.3.72-5.15.08-.22.16-.45.22-.61.22-.37.45-.74.71-1.15l.33-.53c.33-.52.75-1.22,1.11-1.95.13-.24.24-.5.35-.75l.41-.91.19-.52c.27-.69.47-1.38.67-2.06l.07-.24.05-.22c.15-.66.31-1.34.4-2.01.42-2.58.49-5.39.22-8.84-.22-2.65-.6-5.23-.98-7.74l-10.86-72.38c-.86-6.31-1.1-11.06-.76-15.41.19-2.55.62-4.99,1.29-7.22.75-2.43,1.77-4.56,3.02-6.34,1.2-1.77,2.83-3.41,4.84-4.87,1.8-1.27,3.94-2.36,6.36-3.25,4.14-1.49,8.98-2.26,14.79-2.38.56,0,1.12-.01,1.69-.01,2.03,0,4.1.06,6.16.18.75.04,1.5.08,2.2.12.08.01.16.02.24.02h.02c1.69.12,3.46.27,5.41.47,5.16.53,10.41,1.37,15.59,2.47,10.37,2.21,20.47,5.47,30.03,9.67,4.87,2.14,9.62,4.52,14.12,7.08,2.29,1.3,4.56,2.67,6.76,4.07.98.62,2.03,1.31,3.3,2.17l3.37,2.25c2.24,1.5,4.35,2.92,6.26,4.51,2.09,1.73,3.7,3.41,4.94,5.15,1.3,1.79,2.4,3.85,3.37,6.29.87,2.2,1.62,4.63,2.23,7.22,1.21,5.04,1.87,10.38,2.52,15.55.13.96.24,1.95.34,2.9l.52,5,.5,5.96.12,2c.73,11.5.77,21.91.14,31.82l-.26,3.98c-.06.84-.14,1.69-.22,2.54l-.32,3.42c-.05.59-.12,1.22-.21,1.93l-.49,3.98c-.11.97-.26,1.96-.41,2.93l-.39,2.57c-.12.78-.24,1.55-.36,2.3l-1.08,5.85-1.27,5.83c-.19.82-.4,1.66-.61,2.46l-1.08,4.23-1.39,4.78c-1.21,4.12-2.96,9.42-5.8,13.85-1.26,2-2.77,3.7-4.48,5.08-1.65,1.33-3.57,2.29-5.72,2.85-.98.27-2.05.44-3.28.53-.57.05-1.16.07-1.74.07s-1.14-.02-1.72-.07c-2.21-.15-4.59-.59-7.08-1.32-3.54-1.04-6.99-2.52-10.72-4.12-1.29-.55-2.59-1.11-3.91-1.66-4.48-1.86-10.44-4.03-16.85-4.4-.5-.03-.99-.04-1.47-.04s-.9.01-1.35.04c.15-.69.26-1.4.35-2.1.03-.18.04-.36.06-.54l.06-.61c.01-.1.02-.23.02-.36v-.11c.05-.69.02-1.34-.01-1.91-.13-1.47-.41-2.79-.66-3.97-.14-.63-.26-1.22-.35-1.79-.12-.75-.16-1.37-.12-1.84l-.43-.04h0l.43-.06.06-.32s.02-.07.04-.13l.03-.12.11-.23s.03-.08.1-.18c.27-.44.81-1.06,1.35-1.68l.14-.16c.59-.68,1.33-1.52,2-2.71.31-.59.68-1.4.83-2.38.05-.22.06-.42.07-.6v-.25c.03-.22.04-.47,0-.69-.02-.21-.04-.43-.07-.68-.03-.21-.08-.44-.17-.75-.26-.9-.73-1.77-1.36-2.52-.52-.62-1.16-1.17-1.89-1.62-.65-.41-1.37-.73-2.13-.95-.65-.19-1.32-.32-2.03-.38-.45-.04-.9-.06-1.4-.06-.65,0-1.27.04-1.91.07-1.87.11-3.85.21-5.78.21-1.74,0-3.26-.09-4.64-.26-1.64-.21-3.2-.59-4.63-1.11-.4-.15-.73-.27-1.08-.44l-.52-.23-1.05-.54-1.05-.62-.64-.4c-.96-.58-2.11-1.22-3.62-1.52-.17-.04-.35-.06-.53-.09l-.22-.03c-.19-.02-.39-.04-.56-.04h-.19c-.36,0-.74.03-1.16.1-.96.16-1.84.51-2.63,1.03-.97.64-1.73,1.56-2.15,2.58ZM75.25,309.83c2.56.92,4.97,1.79,7.27,2.83l.17.73s.05.17.11.39l-6.14-2.41c-.96-.38-1.87-.73-2.59-1.13-.4-.22-.75-.46-.98-.67-.26-.26-.48-.5-.65-.76.94.35,1.88.69,2.81,1.02ZM179.48,121.74c.45.79.99,1.44,1.6,1.93.2.16.45.34.67.46.21.12.44.23.74.35.48.18,1,.28,1.49.31.08,0,.15,0,.23,0h.19c.15,0,.24-.01.52-.05.28-.05.62-.11.98-.26.7-.26,1.28-.69,1.75-1.27l.06-.08c.07-.09.13-.17.18-.25l.11-.17c.31-.43.3-.84.25-1.08l-.2-1.42c-.04-.27-.06-.44-.11-.58l-.38-1.42c-.07-.26-.12-.54-.18-.85-.03-.18-.06-.36-.1-.51-.19-1.05-.35-2.01-.48-2.92-.29-1.98-.53-3.95-.69-5.86-.09-1.09-.16-2.05-.21-2.96l-.05-.77c-.05-.74-.1-1.43-.12-2.14-.07-2.09.06-3.83.4-5.35.36-1.65,1.05-3.16,2-4.36.28-.35.54-.64.8-.91.19-.21.38-.41.52-.59.38-.47.63-.77.78-1.03.73-1.13.28-2.03.12-2.33-.15-.3-.62-1.21-1.94-1.21-.08,0-.17,0-.33.02-.55.07-1.14.27-1.77.6-.37.19-.75.46-1.2.84-.39.34-.79.76-1.19,1.24-1.48,1.82-2.56,4.07-3.13,6.52-.47,1.99-.66,4.13-.61,6.72.03,1.25.08,2.27.17,3.21.09.93.21,1.93.36,3.05-.04-.13-.07-.26-.11-.38-1.14-4.34-1.62-7.9-1.52-11.2.01-.29.03-.57.05-.85l.04-.58c0-.25.05-.51.08-.78.03-.19.05-.37.07-.57.03-.32.09-.64.17-1l.18-.95c.05-.21.1-.41.16-.62.19-.7.45-1.24.74-1.56.16-.17.39-.37.72-.61.32-.23.69-.48,1.13-.77l4.49-2.99s4.34-3.14,4.36-3.16c.2.15.45.36.68.56.78.67,1.32,1.23,1.72,1.76.33.44.51.85.54,1.25h0c-.28.32-.62.72-.98,1.25l-.21.29c-.39.54-.83,1.16-1.24,1.93-.32.59-.53,1.2-.65,1.82-.06.35-.09.72-.1,1.03v.09s.02.26.02.26c.02.27.04.6.15.98l.06.19c.08.26.16.55.3.84.13.28.29.55.49.86.12.18.23.34.38.54.04.05.07.1.1.15-.05.12-.11.27-.2.46l-.15.35c-.11.24-.21.52-.28.74-.09.25-.15.5-.2.72l-.04.17c-.24,1.13-.25,2.28-.05,3.43l.09.45c.04.17.09.33.14.48l.04.13c.1.38.24.69.38,1.01l.13.29c.45.87.87,1.51,1.29,1.94.19.22.39.42.58.62l1.54,1.56c.12.13.26.27.43.4l1.49,1.21,1.19-3.84.52-1.53c.07-.11.21-.34.23-.36.04-.05.08-.1.11-.14.03-.04.06-.08.05-.08,0,0,0,0,0,0,.07-.07.14-.14.22-.21.05-.05.11-.11.17-.16.49-.42,1.11-.8,1.85-1.14.69-.32,1.49-.61,2.45-.89.43-.13.89-.25,1.34-.36l1.48-.36c2.67-.67,4.76-1.54,6.58-2.75,1.27-.86,2.25-1.81,2.99-2.88.2-.26.34-.52.48-.78l.55.13c.33.06.65.11.98.15l.45.06c.64.07,1.3.11,1.95.11,1.26,0,2.54-.13,3.79-.4.92-.2,1.84-.47,2.73-.81.1,0,.21,0,.31,0,.76.03,1.51.14,2.22.31.4.1.79.21,1.14.3l.53.17.55.21c1.38.58,2.68,1.48,3.77,2.61.55.57,1.04,1.19,1.46,1.83l.33.54.08.15c.08.16.18.35.36.59.31.38.55.71.76,1.03.55.83,1.25,1.25,2.07,1.25.3,0,.57-.06.8-.11.33-.08.88-.21,1.34-.71.44-.5.64-1.17.58-2-.04-.55-.12-1.14-.24-1.86l-.03-.11c-.18-.57-.42-1.07-.65-1.56l-.08-.17c-.54-1.07-1.18-2.08-1.92-3.03.64-.2,1.48-.52,2.26-1.06l.12-.08c.15-.1.3-.2.5-.35l.48-.42c.18-.16.34-.32.48-.46l.11.07c.32.18.66.35,1.04.54,1.41.64,3.01,1,4.63,1.03h.24c1.44,0,2.87-.24,4.26-.72.73-.25,1.44-.57,2.09-.94,0,.13,0,.26,0,.38.03,1.04.21,2.06.5,2.96.59,1.9,1.56,3.41,2.44,4.65.35.48.72.95,1.08,1.39-.26.37-.49.71-.69,1.07-.45.78-.77,1.52-1,2.27-.29.97-.41,1.94-.33,2.87.07.98.38,2.02.87,2.92.45.82.98,1.46,1.44,1.98.21.23.41.44.6.65.52.56,1.02,1.09,1.23,1.48.1.18.14.3.15.5.02.23-.01.54-.09.91-.01.06-.03.12-.04.18-.18-.21-.37-.4-.56-.59-.18-.19-.37-.37-.6-.56-.2-.18-.42-.37-.62-.51-.39-.3-.82-.58-1.32-.87-.9-.52-1.85-.93-2.83-1.24-.99-.31-2.01-.49-3.03-.56-.31-.02-.61-.03-.92-.03-.2,0-.41,0-.57.01-.19,0-.38.02-.56.04l-.19.02c-.3.02-.71.07-1.12.27-.94.41-1.29,1.09-1.41,1.6-.13.56-.03,1.08.05,1.45.13.63.39,1.95,1.86,2.32l.04.02h.07c.08.04.27.1.53.1h.15s.34,0,.34,0c.06,0,.12,0,.21,0,.26.02.54.05.85.1.55.1,1.09.26,1.61.48.51.22,1,.5,1.45.83.25.18.45.35.64.53l.16.14s.1.09.2.18c.08.08.17.15.27.27.74.79,1.33,1.78,1.71,2.88.33.95.51,1.95.51,2.91l-.35.43-.92,1c-.46.47-.92.92-1.38,1.35-.9.85-1.82,1.68-2.81,2.56l-.04.04c.02-.79-.02-1.55-.1-2.31-.18-1.58-.6-3.1-1.27-4.54-.39-.81-.87-1.54-1.41-2.17-.66-.77-1.43-1.37-2.28-1.8-.88-.44-1.91-.68-2.89-.68h-.12c-.94.02-1.87.22-2.78.6-.42.18-.83.39-1.21.64-.43.27-.77.6-1.07.9-.55.55-1.04,1.18-1.47,1.86-.33.49-.43.94-.5,1.22-.07.33-.08.62-.05.88.11.85.7,1.21.91,1.33.13.08.48.29.97.29.19,0,.38-.03.57-.09.22-.07.44-.18.73-.37.18-.12.48-.32.75-.63.35-.37.7-.67,1.07-.92.09-.06.19-.12.32-.19.1-.05.2-.11.27-.15.16-.09.32-.16.49-.22.29-.1.58-.16.92-.16h.01c.25.01.46.07.68.19.46.27.93.88,1.25,1.65.36.9.57,1.89.63,2.86.11,1.85-.25,3.93-1.09,6.37l-.25.67c-.32.89-.66,1.81-1.03,2.68,0,0-.85,1.91-.9,2-.09.21-.19.41-.29.69l-.03.11c-.51,1.22-.91,2.53-1.22,4-.32,1.54-.5,3.06-.65,4.29l-.06.46c-.14,1.2-.28,2.33-.48,3.45-.14.81-.26,1.61-.39,2.48-.08.53-.16,1.06-.25,1.59-.29,1.81-.65,3.86-1.25,5.72-3.08-2.59-6.64-4.85-10.61-6.73.21-.28.35-.57.45-.78.72-1.51.49-2.62-.69-3.29-1.43-.87-2.7-1.89-3.76-3.03-1.1-1.17-2.08-2.52-2.89-3.98l-.58-1.14-.58-1.32c-.33-.73-.67-1.49-.94-2.3-.12-.3-.21-.63-.3-.98l-.21-.77-.44-2.19c-.07-.35-.14-.68-.17-1.05-.08-.65-.26-1.99-1.58-2.1h-.14c-1.27,0-1.57,1.31-1.71,1.93-.12.5-.17.96-.23,1.42l-.05.42c-.03.2-.06.43-.05.7l.06,1.53.1.93c.05.46.1.93.2,1.37.17.98.41,2.01.76,3.12l.19.47c.13.32.26.64.42,1.01l.67,1.37c1,1.89,2.21,3.62,3.58,5.14.21.23.42.46.64.68-.72-.25-1.44-.48-2.16-.7-3.11-.96-5.7-1.62-8.15-2.08-2.48-.47-4.99-.71-7.46-.71-.41,0-.81,0-1.24.02-.7.04-1.4.09-2.14.16-.3-.29-.66-.57-1.12-.85-2.98-1.85-6.16-3.68-9.47-5.44-.45-.57-.8-1.06-1.1-1.53-.37-.58-.7-1.17-.96-1.75-.14-.31-.26-.63-.35-.87l-.16-.47-.16-.55c-.21-.74-.4-1.46-.57-2.22-.18-.66-.38-1.41-.52-2.15-.15-.75-.25-1.44-.3-2.11-.02-.3-.04-.63-.04-.98l.02-.65c.01-.17.04-.45-.04-.76-.12-.76-.4-1.67-1.51-1.95-.15-.04-.33-.08-.55-.08-.29,0-.55.07-.83.22-.41.23-.75.62-1.02,1.14-.21.36-.29.7-.35,1.02l-.12.68c-.07.52-.12.95-.15,1.37-.06.85-.07,1.73-.03,2.69.04.93.13,1.8.26,2.69.14.73.31,1.5.51,2.28-.89-.41-1.76-.81-2.64-1.2l-1.06-.43c-.8-.32-1.62-.66-2.44-.96l-1.77-.68-1.76-.64c-2.58-.94-5.18-1.78-7.17-2.41l-1.25-.38c-.63-.19-1.27-.38-1.9-.56.43-.55.83-1.08,1.2-1.61,1.01-1.43,1.95-2.92,2.81-4.45l.62-1.15.61-1.21c.3-.7.6-1.46.92-2.33,1.06-.03,2.14-.22,3.2-.58,1.31-.44,2.53-1.13,3.61-2.04l.4-.34.33-.32c.13-.13.25-.25.37-.38l.03.08c.11.35.25.67.38,1.01l.2.5c.23.56.46,1.11.79,1.72ZM268.65,126.12c.04-.07.09-.14.14-.21.33-.49.98-1.11,1.92-1.84.27-.21.54-.42.82-.62l.06-.05h.08s.35-.32.35-.32l.43-.35c.54-.45,1.17-.98,1.79-1.59.75-.74,1.31-1.42,1.77-2.15.62-.99,1.01-2.02,1.16-3.03.17-1.1.08-2.08-.02-2.93l-.06-.47c-.07-.53-.13-1.03-.15-1.44,0-.19,0-.39.04-.63,0-.05.03-.12.08-.27l.02-.07c.13-.28.34-.58.62-.88.48-.5,1.15-1.02,1.88-1.59.4-.31.81-.63,1.23-.98.8-.67,1.42-1.31,1.96-1.99.7-.89,1.21-1.99,1.45-3.09.31-1.32.13-2.6-.06-3.43-.2-.85-.52-1.71-.96-2.62-.23-.48-.47-.94-.7-1.39-.42-.81-.81-1.57-1.05-2.24-.16-.46-.24-.87-.25-1.24-.01-.47.16-1.12.21-1.32.18-.65.46-1.37.76-2.13.22-.57.46-1.17.68-1.83.25-.77.52-1.71.62-2.82.1-1.25-.17-2.59-.74-3.68l-.1-.18c-.11-.2-.23-.42-.37-.61-.19-.28-.39-.5-.57-.7-.07-.08-.14-.15-.21-.22l19.72,2.46.09.02.11.04s.06.02.17.1c.12.09.22.21.29.38.01.04.02.11.03.2l.43.02h0l-.43.09-5.17,64.56c-.83.42-1.59.94-2.28,1.57l-.47.45-4.54,4.71-38.13-8.1c.06-.15.12-.3.18-.43l.37-.73s.34-.56.38-.63c.08-.1.15-.21.23-.32.08-.12.17-.24.26-.35l.24-.3c.11-.14.23-.29.36-.44.73-.86,1.58-1.76,2.6-2.75.97-.94,1.96-1.84,3.05-2.82.97-.87,1.97-1.77,2.95-2.71.51-.49,1.03-1,1.56-1.55l1.15-1.27.71-.89c.15.11.3.21.53.33.17.08.33.13.46.16.2.06.39.08.58.08.63,0,1.02-.32,1.16-.44.29-.24.69-.65.72-1.44.03-.35-.03-.69-.12-1.12ZM310.64,72.95c.07.09.14.17.21.26.07.08.12.14.18.24l.37.55.36.67c.04.07.08.17.12.28.04.11.09.22.12.28.64,1.54,1,3.49,1.11,5.98.09,2.15-.1,4.37-.31,6.71l-.02.2c-.44,4.99-.89,9.88-1.35,14.55l-.73,7.28c-.13,1.36-.26,2.73-.38,4.09l-.03.32c-.08.96-.17,1.92-.26,2.88-.87,9.58-1.84,19.08-2.86,28.27l-2.38-.92c-.35-.13-.71-.23-1.09-.32l5.07-63.28v-.2c.03-.4,0-.79-.02-1.12-.09-.79-.26-1.47-.52-2.07-.54-1.33-1.44-2.48-2.61-3.33-.6-.43-1.24-.78-1.82-.98-.29-.12-.57-.2-.83-.26l-.25-.06-.5-.09-.25-.04-20.66-2.57c.08-.83.04-1.68-.12-2.43-.03-.16-.07-.31-.11-.47l2.19.29c.56.08,1.13.15,1.69.2l14.59,1.4c1.16.11,2.35.23,3.48.39,2.57.38,4.39.93,5.74,1.74.18.11.35.21.56.36.16.11.32.23.53.41.06.05.14.12.22.21l.43.42.3-.31-.23.4.07.08ZM268.68,173.2c-1.72,1.75-3.43,3.51-5.15,5.27l-.09-.02-1.82-.26,4.7-5.54,2.36.56ZM259.07,183.11c-.24.25-.47.5-.69.74,0-.29,0-.6-.02-.93l.71.19ZM283.74,157.71l-.51.52-33.39-7.22.06-.52,33.83,7.21ZM248.29,168.21l-.96.9c-.28-.3-.56-.61-.84-.93l-.24-.27c.04-.07.08-.14.11-.21l1.93.51ZM255.5,175.22l-.69.74c-.55-.6-1.12-1.16-1.71-1.68-.26-.23-.52-.45-.78-.67l3.04-3.57,4.26,1.01-3.24,3.21c-.3.31-.6.63-.89.95ZM248.26,161.55c.21-1.06.38-2.08.53-3.06l.07-.44,28.59,6.19c-.99,1.02-1.99,2.05-2.98,3.07l-18.91-4.31c-.39-.09-.79-.16-1.18-.24l-6.11-1.21ZM242.39,321.53c-.64.67-1.07,1.49-1.23,2.36-.08.45-.11.9-.06,1.41l.02.13c.02.17.04.33.06.39l.06.29,1.67,8.05-6.38,4.77-.1.09-4.32-.78c-7.76-1.45-13.63-2.87-18.98-4.62,0-.04,0-.08,0-.11-.01-.29.02-.5.09-.69.05-.11.1-.22.18-.33l.04-.05.02-.07-.37-.24.45.08.26-.46c.26-.44.56-.88.94-1.39l.42-.59c.09-.12.17-.25.28-.43l.09-.14c.11-.17.23-.37.38-.73.06-.13.12-.27.19-.47.06-.19.12-.39.16-.56.03-.12.06-.24.08-.37.89.08,1.78.12,2.64.12,1.12,0,2.26-.07,3.39-.21,1.89-.32,3.54-.77,5.02-1.36.32-.11.61-.24.88-.37.12-.06.5-.23.5-.23.37-.16.75-.34,1.1-.54l1.15-.63,1.1-.7c1.54-1.03,2.89-2.12,4.01-3.24.49-.45.93-.94,1.32-1.37.15-.16.3-.33.48-.53l.39-.48c.28-.34.57-.69.85-1.06.72-.14,1.5-.24,2.26-.33,1.38-.18,2.86-.41,4.36-1.03.94-.39,1.77-.87,2.49-1.32l-.45,1.8c-.1.4-.25,1.01-.4,1.31-.08.18-.23.36-.49.62-.25.25-.59.54-.96.85l-3.19,2.74c-.15.13-.3.27-.42.41ZM210.86,261.8l.3.33.11-.06c.15-.08.3-.14.51-.24l.09-.04c.83-.35,1.77-.64,2.79-.86,0,0,.22-.05.27-.06.16.17.34.35.53.53.64.6,1.41,1.16,2.34,1.71.71.42,1.44.81,2.24,1.2,1.42.7,2.82,1.33,4.37,2.03l.79.35c2.44,1.08,5.21,2.3,7.93,3.41,1.79.72,3.18,1.26,4.52,1.74,1.4.49,3.08,1.04,4.95,1.41.21.04.43.07.64.11-.41.16-.81.31-1.2.47-.71.29-1.41.58-2.19.9-1.39.58-2.71,1.12-4.03,1.58-2.13.75-3.95,1.15-5.76,1.26-.28.03-.58.03-.91.03-.17,0-.34,0-.47,0l-.52-.02c-.32,0-.63-.02-.98-.06-.99-.07-2.02-.24-2.98-.42-1.96-.39-4.03-.95-6.15-1.68-1.11-.37-2.2-.77-3.12-1.11-.92-.34-1.99-.74-2.98-1.19-2.08-.93-3.52-1.88-4.38-2.93-.41-.49-.69-1.06-.86-1.76-.01-.04-.01-.08-.02-.18l-.02-.13v-.26s-.02-.1-.01-.15v-.12c0-.26.05-.56.15-.95.17-.67.51-1.35.96-1.96.23-.3.49-.62.83-.93.06-.06.12-.12.19-.17l.2-.16.18-.13c.1-.07.2-.15.34-.24.3-.21.66-.41,1.08-.62l.4-.19.11-.07-.21-.38h0ZM195.81,297.52c1.36-.08,1.76-.79,1.85-1.38.08-.54.15-1.11.2-1.79,0-.5-.05-.97-.11-1.38l-.05-.43c-.15-1.11-.37-2.23-.66-3.33-.35-1.35-.81-2.72-1.38-4.07l.55-3.04c.13-.82.26-1.63.38-2.45l.13-.85c.09.07.18.14.26.2.6.47,1.18.96,1.73,1.46.28.26.56.52.82.78l.4.4c.08.09.16.16.18.19,0,.09.01.27,0,.61-.01.83-.04,1.64-.07,2.45-.02,1.88-.08,3.42-.19,4.85-.11,1.55,1.56,1.81,2.1,1.9.31.05.58.08.83.08,1.08,0,1.62-.66,1.77-1.28.43-1.88.75-3.57.98-5.16.09-.83.17-1.71.24-2.6v-.15c.04-.42.08-.94,0-1.6-.05-.46-.16-.91-.32-1.31-.15-.39-.35-.76-.61-1.15-.2-.3-.41-.55-.59-.76l-.45-.51c-.3-.34-.61-.67-.93-1-.2-.21-.4-.41-.61-.62.28-.06.57-.22.81-.55.74.8,1.6,1.54,2.62,2.24,1,.69,2.1,1.31,3.44,1.95,1.15.55,2.33,1.02,3.35,1.42.96.38,2.1.83,3.3,1.26,2.67.97,4.91,1.62,7.05,2.06,1.16.23,2.42.45,3.73.55.46.05.92.07,1.39.09l.64.03h.35c.76,3.99,1.08,8.08.96,12.16-.04,1.17-.12,2.39-.23,3.62l-19.8,2.57c-.73.09-1.48.19-2.26.32-1.35.22-2.39.46-3.38.79-1.14.37-2.35.96-3.41,1.67-.58.38-1.09.76-1.64,1.16-.29.22-.58.43-.87.63-.24.17-.48.33-.75.49l-.27.17-.24.13c-.28.16-.55.31-.86.46-1.32.66-2.88,1.14-4.77,1.46-.72.13-1.44.22-2.12.25.44-1.3.88-2.72,1.35-4.33l1.42-4.96.75-2.99c.1-.4.57-2.25.68-2.7.11.31.21.62.31.94.11.32.49,1.07,1.68,1.07.1,0,.2,0,.31-.01ZM200.35,224.18l-.24,1.17c-.06.31-.11.64-.16.97l-.06.39c-.07.38-.09.75-.12,1.11l-.02.34c-.05.49-.04.96-.04,1.48v.73s.08.94.08.94c.03.39.06.8.15,1.21.17,1,.41,1.96.61,2.7l.12.41c.08.29.17.58.27.89l.44,1.25c.21.54.42,1.08.64,1.61l.31.78c1.28,3.12,2.82,5.98,4.32,8.75-.77.95-1.55,1.91-2.34,2.92l-3.31,4.64-2.22,3.13.12-1.98c.61-10.24.52-20.96-.28-32.78l-.14-2.06-.17-1.98s.23.2.23.2c.56.47,1.09.92,1.43,1.31.26.29.41.54.46.77.02.07.06.36-.09,1.12ZM236.69,305.15c.4-2.69.63-5.44.69-8.18.09-4.49-.29-8.99-1.15-13.37.64-.18,1.29-.38,1.93-.61.69-.24,1.41-.5,2.23-.82.01,4.71-.1,9.69-.86,14.41-.2,1.25-.47,2.55-.85,4.1-.38,1.42-.78,2.7-1.25,3.9-.34.86-.69,1.64-1.04,2.38l.3-1.82ZM198.31,265.78l.02-.21c.17-.03.33-.06.47-.09.18-.01.35-.02.54-.02h.12s1.04.01,1.04.01c-.15.65-.24,1.25-.27,1.79-.03.35-.03.68-.01,1v.32s.04.27.04.27c.03.33.07.67.14.98.07.37.17.73.28,1.08l-2-.84-.77-.22c.13-1.16.29-2.6.4-4.07ZM163.9,123.07l-.59,1.03c-.8,1.34-1.67,2.65-2.6,3.88-.99,1.32-1.8,2.32-2.58,3.21-.58-.16-1.21-.33-1.86-.48l-.23-.05c-1.59-1.6-3.36-3.02-5.24-4.2-1.09-.68-2.12-1.24-3.14-1.71-.21-.1-.42-.19-.63-.28l-.19-.08c-.35-.15-.66-.27-.98-.38-.49-.16-.94-.27-1.4-.32-.2-.02-.42-.04-.63-.04-.44,0-.86.05-1.26.15-1.13.29-1.89.84-2.39,1.21l-.24.18c-.15.11-.28.21-.4.29-.03.02-.06.04-.15.09l-.12.06c-.28.13-.83.3-1.92.33-.27,0-.55.01-.83.01h-1.56s-.96.05-1.02.05l21.92-8.66c.2.53.45,1.08.8,1.63.6.98,1.47,1.84,2.53,2.48.89.54,1.91.92,3.03,1.13.59.11,1.18.17,1.84.17l-.15.28ZM133.92,132.16c-.4.13-.8.28-1.22.43l-1.41.55-1.32.7-1.25.72-1.21.75c-1.63,1.04-3.2,2.19-4.69,3.43l-.49.43c-.42.36-.85.73-1.26,1.12-1.4-.35-2.81-.69-4.21-1.01,1.36-.92,2.66-1.72,3.94-2.45,3.96-2.37,7.48-3.8,10.75-4.37.86-.13,1.61-.24,2.38-.28ZM112.4,325.87c.34-.26.67-.54,1-.84l.38-.34c.67-.67,1.24-1.3,1.71-1.92.09,0,.18,0,.27,0,.11,0,.23,0,.37,0,.22,0,.45-.02.71-.02h.28c.57-.02,1.22-.04,1.97-.04.81,0,1.58.02,2.35.07,1.07.05,2.22.19,3.52.42.56.1,1.14.21,1.74.35-.27.13-.54.27-.81.39-1.7.78-3.25,1.33-4.81,1.71-.52.16-1.06.27-1.69.38-.26.05-.51.1-.8.16-.21.05-.45.08-.7.1-.16.02-.99.12-.99.12-.24.03-.48.06-.7.08l-1.56.09c-.12,0-.23.01-.33.02l-1.92-.02-.89-.07s.89-.63.89-.63ZM122.05,332.03l3.67,1.18,6.93,2.21c1.48.47,3.01.96,4.54,1.4l.07.02-.08,5-.59.07c-1.67-1.58-3.42-3.07-5.22-4.43l-.56-.41c-.37-.27-.74-.54-1.17-.84l-.5-.32c-.42-.26-.83-.52-1.28-.79l-1.81-1.04-1.85-.97-1.88-.91-.33-.14s.04,0,.06-.01ZM200.75,318.09c-.88.24-1.92.5-2.91.62-.43.05-.83.08-1.31.08-.44,0-.92-.03-1.43-.05h-.13c-.5-.03-1-.05-1.46-.05-.93,0-1.78.06-2.53.17-1.37.18-2.72.53-4.01,1.03-.84.33-1.59.68-2.31,1.03.89-1.5,1.7-3.09,2.47-4.81,1.04.17,2.13.26,3.25.26.6,0,1.2-.02,1.86-.07l.27-.03c.2-.02.41-.04.64-.08l.78-.15c.23-.04.46-.1.69-.15l.23-.06c.28-.07.56-.14.79-.21,1.05-.29,2.14-.71,3.23-1.22.46-.21.9-.45,1.33-.68l.26-.15.28-.17c.39-.24.78-.48,1.15-.73.36-.24.69-.49,1.07-.76.45-.32.87-.63,1.29-.89.67-.43,1.25-.71,1.93-.93.66-.21,1.42-.38,2.4-.52.62-.09,1.28-.17,1.96-.25l18.06-2.14c-.03.12-.05.24-.08.35-.25,1.05-.48,1.93-.74,2.74l-.9.18-.98.19c-.12.02-.23.04-.4.09l-2.02.66c-1.14.36-2.19.68-3.2.98l-1.66.48-1.61.52c-4.33,1.38-8.8,2.65-12.99,3.81l-3.27.9ZM271.3,268.52c-.62.22-1.27.43-1.95.61-.71.19-1.46.35-2.25.5l.12-.03c1.37-.36,2.73-.72,4.08-1.07ZM278.65,256.85l-.11.17c-.12.18-.23.36-.31.51-.25.47-.45.9-.62,1.31l-.06.14c-.26.61-.49,1.14-.7,1.44-.18.26-.39.44-.73.62-.39.21-.9.4-1.55.59l-4.55,1.17c-1.42.38-2.83.77-4.24,1.16,0,0-1.17.32-1.7.47.13-.11.25-.22.36-.33.25-.24.5-.5.74-.76l.43-.45c.21-.21.41-.44.61-.67.19-.21.42-.47.61-.78.22-.33.42-.66.62-1l.29-.49c.48-.85.33-1.7-.43-2.41-.18-.17-.65-.61-1.37-.61-.34,0-.68.1-1.01.3l-.48.3c-.28.18-.55.35-.78.48-.36.18-.63.39-.87.58-.18.14-.36.28-.55.41-.16.11-.31.22-.47.33-.25.18-.49.36-.73.51-.31.19-.58.41-.87.65-.13.11-.27.22-.44.34-1.56,1.18-3.23,2.25-4.95,3.18-1.84.99-3.76,1.78-5.39,2.43-.99.37-1.91.68-2.83.95-.27.09-.54.16-.87.24l-.57.15c-.12.03-.23.06-.35.09l-.1.02c-.41-.04-.75-.08-1.07-.13-1.16-.21-2.48-.58-4.13-1.14-1.26-.43-2.62-.94-4.3-1.6-3.32-1.31-6.05-2.41-8.57-3.45-.1-.1-.2-.19-.34-.28-.18-.12-.37-.26-.65-.47-.17-.12-.33-.2-.52-.28l-.39-.21c-.23-.12-.44-.24-.67-.38-.21-.13-.42-.26-.64-.41-.25-.17-.51-.32-.77-.47-.22-.13-.44-.26-.68-.42-.42-.27-.84-.57-1.29-.91-1.64-1.25-3.19-2.79-4.62-4.58l-.09-.11c-1.43-2.23-2.72-4.55-3.9-6.73-1.69-3.11-3.07-5.71-4.19-8.43-.51-1.22-.92-2.59-1.26-4.17-.12-.63-.26-1.36-.33-2.08-.01-.13-.03-.25-.05-.38l-.02-.18-.1-1.04-.02-.61c-.01-.3-.02-.58,0-.87,0-.13.01-.25.02-.38,0-.21.01-.4.05-.6.02-.15.04-.3.06-.45.02-.19.04-.39.08-.58l.23-1.24c.07-.46.15-1.01.17-1.64.02-.75-.05-1.42-.21-2.03-.38-1.55-1.26-2.73-1.93-3.45-.67-.72-1.33-1.26-1.92-1.73l-.24-.19c-.6-.48-1.14-.91-1.53-1.33-.32-.33-.51-.62-.66-1.01-.15-.4-.23-.9-.26-1.5-.03-.56,0-1.2.08-2.01.04-.47.1-.95.18-1.53.03-.27.07-.54.09-.78.2-1.47.43-3.06.73-4.68.93-5.23,2.34-10.48,3.73-15.62,0,0,.55-2.05.79-2.93.21-.8.34-1.43.44-1.92.05-.27.08-.49.12-.76v-.17c-.02-.18-.04-.33-.07-.53-.06-.44-.18-1.26-1.05-1.62-.2-.08-.4-.13-.61-.13-.54,0-.95.28-1.36.6-.1.08-.23.18-.42.35l-.11.13c-.12.16-.25.35-.39.56-.28.42-.58.95-1.02,1.79-.38.74-.74,1.49-1.14,2.31-.33.79-.63,1.6-.9,2.36-.2.53-.4,1.09-.6,1.69-.03-.64-.05-1.32-.05-1.99,0-.51,0-1.02.02-1.55,0-.4-.01-.81-.03-1.22l-.02-.46c-.06-.98-.67-1.64-1.6-1.72-.07,0-.14-.01-.21-.01-.31,0-1.35.1-1.67,1.39-.54,2.07-.83,4.27-1.06,6.19-.6-2.18-1.29-4.25-2.06-6.18-.62-1.54-1.24-2.86-1.88-4.04l-.53-.97c-.13-.23-.27-.45-.41-.68-.06-.1-.33-.52-.39-.62-.14-.22-.28-.45-.44-.67l-.64-.9c-1.61-2.24-3.65-4.36-6.23-6.48-2.19-1.79-4.46-3.31-6.68-4.79l-3.55-2.35c-1.33-.89-2.43-1.6-3.46-2.25-2.31-1.46-4.7-2.89-7.1-4.24-4.72-2.66-9.7-5.13-14.8-7.34-5.69-2.48-11.63-4.65-17.67-6.47.88-.72,1.79-1.4,2.73-2.03l1.05-.69,1.08-.66,1.13-.64.09-.06c.22-.15.44-.29.68-.45l.38-.25c.78-.49,1.51-.92,2.24-1.32.15-.08.3-.16.47-.25l.28-.15.02.02.58-.51c.21-.19.43-.37.68-.57l.39-.32c.65-.56.86-1.19.64-1.87-.08-.25-.21-.46-.38-.62.6-.13,1.21-.32,1.83-.61.36-.16.74-.37,1.14-.64.24-.16.44-.31.63-.45,0,0,.29-.22.35-.25.14.05.29.11.47.19l.22.09c.14.06.28.12.44.2.38.18.74.35,1.09.52-.69.19-1.42.4-2.23.67-.61.2-1.14.41-1.55.64-.21.11-.4.23-.63.4l-.12.12c-.15.17-.27.33-.35.45-.52.78-.44,1.41-.3,1.87.13.46.4,1.03,1.25,1.42.13.06.31.13.61.22l.16.02c.1,0,.21.01.33.01.1,0,.2,0,.32-.01.43-.03.94-.1,1.58-.23,1.31-.27,2.38-.44,3.37-.54l1.67-.15c.35-.02.7-.03,1.04-.03.17,0,.34,0,.53.01.9.03,1.85.18,3.08.49.95.24,1.96.54,2.97.85l1.1.33c.35.11.7.21,1.04.32l1.73.61c.73.25,1.46.53,2.18.8l1.21.45c1.99.77,4.34,1.71,6.72,2.75l1.65.72,1.67.77c.75.34,1.51.7,2.25,1.06l1.02.49,3.27,1.54c.39.2.79.39,1.2.59.68.33,1.38.67,2.06,1.03,1.56.8,3.14,1.64,4.72,2.52-1.33.14-2.64.2-3.92.2-.55,0-1.11-.01-1.66-.04-1.02-.04-2.11-.14-3.22-.29-1.14-.15-2.15-.35-3.09-.6-2.09-.55-4.24-1.41-6.25-2.24-2.35-.97-4.8-2.06-6.97-3.02-1.94-.86-3.94-1.75-5.92-2.58l-10.29-4.47c-.36-.16-.73-.32-1.15-.48l-1.69-.58c-.39-.13-.74-.19-1.05-.19-.83,0-1.46.41-1.85,1.23-.39.79-.52,1.94,1.02,2.93l1.56.97c.33.19.67.36,1.01.54,0,0,10.77,5.59,11.18,5.81.67.35,1.33.7,2,1.03.72.37,1.46.71,2.22,1.07l1.01.48c2.07.97,4.29,2.01,6.5,2.98,2.38,1.04,4.54,1.95,7,2.66,1.17.33,2.45.61,3.82.83.03,0,.07.01.1.02-.48.4-.73.83-.88,1.1-.25.49-.3.96-.13,1.43.17.47.5.81,1.09,1.06.22.08.67.26,1.29.26.13,0,.27,0,.33-.02l.62-.04c.18,0,.45-.02.72-.12l.93-.27,1.92-.55c1.21-.34,2.46-.68,3.8-1.02.73-.17,1.45-.36,2.22-.56.54-.14,1.08-.28,1.63-.41,1.47-.35,2.67-.6,3.77-.8,2.68-.48,5.14-.73,7.52-.75.4-.01.81-.02,1.21-.02,2.05,0,4.05.18,6.14.57,2.21.4,4.57.99,7.45,1.86,1.15.35,2.31.73,3.36,1.09.2.13.41.22.61.28,4.31,1.58,8.16,3.6,11.45,5.97.42.32.83.65,1.27,1l.14.11c.19.13.37.27.58.43.54.45,1.06.9,1.54,1.35,1.12,1.03,2.11,2.13,3.01,3.17,1.26,1.44,2.42,2.63,3.54,3.63.65.58,1.29,1.13,1.92,1.63l.52.42c.43.35.81.65,1.18.99.97.85,1.82,1.84,2.79,3.06l.11.12.07.14.02.06.05.29c.06.42.07,1,.03,1.7-.03.67-.1,1.38-.17,2.13l-.04.39c-.07.71-.14,1.45-.14,2.33v7.09s.11,2.9.11,2.9v.51c0,.33,0,.67-.02,1.02-.04.71-.1,1.45-.18,2.24l-.02.26c-.14,1.55-.29,3.16-.15,4.92.08,1,.27,2,.55,2.88.28.94.69,1.73,1.1,2.49l.05.1c.42.77.86,1.48,1.28,2.14l.61.98c.15.25.32.47.48.68.08.11.17.22.27.37.62.83,1.2,1.51,2.08,1.51.21,0,.42-.04.63-.12.58-.23.95-.71,1.05-1.34.07-.46.01-1.03-.19-1.79l-.09-.32c-.08-.32-.17-.64-.31-.97l-.45-1.1c-.26-.63-.55-1.37-.8-2.1-.04-.1-.07-.21-.11-.31.28.35.56.7.84,1.04.19.23.38.45.57.67l.07.08c.18.22.37.43.55.66l1.12,1.41c1.32,1.66,2.66,3.43,3.26,5.23.14.37.21.77.27,1.15.05.49.06.84.04,1.2-.06.86-.28,1.82-.57,3.07l-.04.17c-.27,1.16-.57,2.47-.62,3.93-.07,1.51.17,2.93.41,4.25.2,1.01.31,1.84.19,2.64-.02.14-.06.35-.12.58l-.08.34c-.03.14-.06.28-.11.44l-.21.73-.26.77c-.37,1.01-.81,1.99-1.3,2.93-.5.94-1.07,1.9-1.71,2.85-.61.91-1.26,1.82-1.99,2.78l-1.08,1.39-.5.63c-.26.28-.37.59-.43.75l-.17.48c-.35.79-.21,1.51-.15,1.82l.02.1c.11.48.32.82.69,1.13.25.2.61.44,1.25.48h.19c.24,0,.96,0,1.64-.46l.47-.28c.15-.09.44-.25.65-.55l.57-.67,1.17-1.43c.84-1.05,1.58-2.03,2.28-3.02.78-1.12,1.46-2.19,2.08-3.28.65-1.15,1.23-2.37,1.73-3.64l.36-.97.28-.9c.09-.27.16-.53.22-.78l.09-.37c.08-.3.15-.62.21-.98.13-.79.18-1.61.13-2.44-.04-.77-.15-1.47-.25-2.13-.21-1.18-.35-2.08-.31-2.95.03-.84.25-1.81.52-2.98l.06-.24c.26-1.11.56-2.37.67-3.77.05-.66.04-1.38-.04-2.16,1.14-.31,2.32-.5,3.52-.54.14,0,.29-.01.43-.01.28,0,.56.01.76.01,5.54,1.28,10.67,3.92,14.83,7.63,2.17,1.94,4.06,4.13,5.62,6.53.28.39.52.82.82,1.35l.14.24c-.87.49-1.69,1.14-2.43,1.92-.67.72-1.28,1.55-1.81,2.46-.22.38-.43.8-.67,1.31-.18.4-.35.8-.51,1.2-.17.41-.33.82-.48,1.22l-.06.16c-.38.99-.75,1.93-1.16,2.75-.3.6-.6,1.1-.93,1.53-.28.37-.63.72-1.17,1.18-.75.63-1.68,1.21-2.67,1.83-.31.19-.62.39-.94.59-.61.39-1.4.92-2.18,1.56-.88.71-1.59,1.43-2.12,2.14-.18.21-.35.45-.52.73ZM293.83,223.54c-2.38-2.14-5.03-3.98-7.91-5.49,2.51.58,4.9,1.7,7.01,3.28,1.32.98,2.47,2.12,3.42,3.39l.35.47.36.55c.15.22.29.47.44.73l.14.25c.35.64.64,1.25.87,1.8-1.39-1.78-2.96-3.46-4.67-4.99ZM306.24,218.7c-.1.38-.22.96-.24,1.59-.04.84.06,1.57.14,2.22l.05.36c.04.36.07.61.08.8v.55s-.04.23-.04.23c-.04.49-.22,1.01-.37,1.41-.19.49-.49,1-.75,1.42-.17.26-.35.51-.53.75-.11-.39-.24-.78-.39-1.18-.36-.94-.8-1.87-1.4-2.95l-.14-.24c-.24-.42-.46-.8-.71-1.16l-.44-.66-.5-.66c-1.31-1.69-2.87-3.2-4.64-4.49-3.57-2.59-7.66-4.17-11.83-4.56-.7-.06-1.42-.1-2.13-.1-1.42,0-2.85.13-4.25.39-1.05.19-2.08.44-3.04.75-.31.09-.59.2-.85.31-.14-.15-.25-.29-.33-.43-.11-.18-.17-.34-.21-.54-.05-.3-.05-.7-.03-1.08.03-.4.1-.75.2-1.04.03-.1.08-.2.12-.29l.04-.07.11-.16c.12-.18.24-.38.35-.57.23-.41.41-.83.55-1.25.08-.23.14-.46.18-.65.02-.09.04-.19.06-.28l.07-.46c.07-.53.06-1.03-.02-1.58-.08-.55-.23-1.01-.35-1.38-.07-.21-.13-.4-.17-.53v-.14c.02-.26.07-.48.14-.63.05-.11.13-.21.36-.38.17-.14.41-.26.71-.35.52-.17,1.19-.26,1.91-.26.2,0,.41,0,.61.02.12,0,.24.02.36.03l-.4.64-.25.4s-.15.04-.15.04c-.73.21-1.06.63-1.28.98-.24.38-.47.92-.24,1.71l.41-.12-.38.23c.04.13.15.48.43.72l.15.14c.13.13.28.26.42.37.23.21.47.33.61.4.18.1.36.19.48.24.59.28,1.2.52,1.92.75l.28.08c.22.07.44.13.7.19l.28.06c.22.05.44.09.71.14.27.04.54.06.8.08l.24.02,1,.03c1.36,0,2.71-.2,4.02-.56.21-.06.41-.13.56-.18.57-.08,1.07-.29,1.52-.47.75-.26,1.36-.73,1.84-1.1l.15-.12c.5-.41,1.06-.88,1.56-1.53.23-.31.42-.6.61-.91.06-.1.12-.2.2-.38l.08-.23c.07-.18.13-.35.18-.55.22-.79-.07-1.48-.86-2.03-.01,0-.03-.02-.05-.03,1.09-1.64,2.18-3.37,3.26-5.16.5.02,1,.17,1.32.4.38.26.77.7,1.21,1.38.23.36.47.76.72,1.19.22.38.43.74.59,1.03.12.26.24.5.36.74.21.42.4.78.46,1.06.11.52.11,1.09,0,1.67-.13.65-.39,1.31-.75,1.95-.18.31-.4.65-.67,1.04l-.59.81c-.2.26-.27.51-.31.65l-.05.13c-.38,1.27.59,2.06.91,2.32.42.35.9.67,1.55.67.32,0,.62-.08.92-.24l.12-.06c.13-.07.37-.2.56-.43l.26-.29.5-.58c.3-.36.55-.68.77-.98l.04.05c.25.38.49.74.66,1.12.19.42.32.83.37,1.25.02.19.03.38.03.51-.03.18-.09.41-.19.76-.1.37-.25.94-.26,1.63-.01.41.04.83.13,1.23.08.31.19.62.34.95l.17.36c.05.1.1.22.13.29,0,0,0,.03,0,.12-.02.31-.21.86-.43,1.5-.12.35-.25.74-.36,1.18ZM289.96,197.82c-.72,1.05-1.36,1.97-1.96,2.8l-1.01,1.39-.51.69c-.13.17-.25.36-.36.55h0c-.51.1-1.01.16-1.49.17h-.71s-.26-.03-.26-.03c-.18-.02-.37-.03-.49-.03-.01,0-.02,0-.03,0l.1-.13c.67-.87,1.39-1.78,2.13-2.68.4-.49.78-.99,1.09-1.4l1.05-1.37c.68-.87,1.4-1.77,2.14-2.68.96-1.17,1.95-2.35,3.03-3.59.2.16.41.32.63.46.1.07.2.13.31.19-1.22,1.99-2.45,3.89-3.65,5.67ZM105.75,137.16l9.41-3.71c-.95.71-1.91,1.46-2.92,2.29l-1.27,1.06-1.19,1.03c-1.33-.24-2.68-.46-4.03-.67ZM51.32,222.01c-2.48-.28-4.91-.85-7.24-1.72-.85-.32-1.4-.97-1.4-1.66v-35.91l2.85,1.09,5.8,38.2ZM37.83,163.98l7.27-2.87c-.28,1.53-.48,3.11-.59,4.7-.02.23-.03.47-.05.71l-6.63-2.54ZM44.63,176.27s-11.62-4.45-11.68-4.47l-.07-2.51,11.58,4.44c.04.84.1,1.69.17,2.55ZM304.09,154.76l-.42-.15c-.31-.1-.64-.18-1-.24-.32-.05-.66-.08-.99-.08-1.04,0-2.08.26-3,.74-.61.32-1.16.74-1.65,1.24l-36.25,38.88c-.06.06-.2.22-.32.36l-.07.08c-.08.1-.16.2-.27.36l-.08.13c-.13.19-.3.45-.4.7-.61,1.21-.82,2.64-.57,4.02.26,1.38.95,2.63,1.92,3.52.43.42.95.77,1.63,1.12l.84.4,1.53.7c.94.42,1.79.79,2.54,1.09.45.18.86.34,1.25.48-.03.06-.06.11-.08.17-.33.7-.58,1.47-.75,2.35-.15.77-.22,1.48-.21,2.21-.87-.56-2.21-1.43-2.21-1.43-.09-.06-.18-.12-.31-.19l-.92-1.17c-.25-.32-.48-.66-.72-1.01l-.24-.36c-.63-.94-1.26-1.92-1.86-2.92-.59-.97-1.17-1.98-1.72-2.99-.28-.5-.54-1.01-.8-1.52l-.39-.76s-.65-1.34-.66-1.36l.1-2.76v-1.98c.59-.47,1.25-1.04,2.02-1.76,1.29-1.2,2.92-2.83,5.14-5.15,3.27-3.41,6.64-6.85,9.9-10.17l3.23-3.29c3.25-3.31,6.52-6.71,9.68-9.99l11.27-11.7.18-.18c.25-.22.54-.4.87-.54.33-.13.69-.2,1.05-.2.32,0,.64.05.92.15l17.52,6.77,51.32,19.84c.08,1.22.15,2.43.21,3.63l-67.22-27.02ZM153.67,360.73c.53.03,1.08.05,1.61.05,1.46,0,2.93-.12,4.38-.36.99-.17,1.97-.39,2.92-.66.48-.14.97-.29,1.43-.45.24-.08.48-.17.73-.26l.77-.3c1.23-.53,2.27-1.46,2.9-2.6.03.1.06.2.11.3.14.33.37.71.68,1.14l-.15.4.86.49.03.04.2.15h.07l.8.52,1.17.78,1.16.8.6.42.63.4c1.54.98,3.1,2.03,4.64,3.12,2.88,2.04,5.76,4.33,8.56,6.8-7.34-.11-14.7-.65-21.89-1.62-1.57-1.11-3.63-2.55-5.74-3.94-3.64-2.4-6.58-4.11-9.55-5.55-.02,0-.04-.02-.06-.03,1.04.19,2.08.32,3.13.38ZM175.81,355.7s-.57-.3-.83-.44l-1.31-.67-.84-.42-.14-.28h-.39l-.77-.44-.26.37c-.19-.01-.38-.02-.55-.02-.28,0-.54.02-.79.05-.33.05-.6.16-.83.31,0-.04.01-.08.02-.13.03-.21.05-.41.05-.61,0-.15,0-.23,0-.28l.08-6.99v-2.06c.12,0,.9-.04.9-.04.31-.04.61-.09,1.01-.15.37-.06.75-.11,1.13-.16,1.37-.18,2.78-.31,4.2-.39,1.63-.07,2.98-.11,4.22-.11,1.53,0,2.91.05,4.23.16,2.84.22,5.63.64,8.3,1.26,2.24.51,4.5,1.19,6.73,2.01.04.37.11,1,.11,1.02l.14.82c.08.47.17.95.3,1.41.05.2.12.39.2.55.02.04.04.08.07.12.02.08.04.16.09.29.05.12.11.24.18.36-.18.22-.33.43-.44.61-.12.17-.22.34-.35.57-.16.25-.25.48-.35.75-.29.74-.5,1.52-.65,2.37-.08.46-.14.93-.19,1.38-.23-.1-.47-.19-.73-.29l-.25-.07c-.53-.15-1.07-.3-1.61-.43-2.44-.6-4.95-1.02-7.46-1.25-1.47-.13-2.96-.2-4.42-.2-1.04,0-2.1.03-3.18.1-1.86.19-3.76.49-5.63.9ZM200.72,339.8c-2.05-.63-4.1-1.15-6.1-1.55-.62-.12-1.25-.24-1.88-.34,1.58-.64,3.15-1.29,4.69-1.93l.14-.06c2.05-.85,3.87-1.64,5.57-2.41l.43-.2c-.91,1.41-1.67,2.95-2.26,4.58-.21.6-.41,1.24-.58,1.9ZM200.19,326.93c-1.66.74-3.42,1.49-5.44,2.32-1.78.73-3.61,1.48-5.41,2.18-4.36,1.71-7.56,2.67-10.71,3.21-2.45.44-4.98.67-7.53.67-1.12,0-2.27-.04-3.42-.13-2.72-.2-5.53-.61-8.2-1.06.14.01.28.02.42.03.72.05,1.45.08,2.17.08.81,0,1.64-.03,2.44-.1,1.7-.13,3.23-.39,4.67-.78,3.18-.82,6.17-2.33,8.63-4.34l.17-.14c.51.11,1.05.16,1.64.16.28,0,.55-.01.86-.04.78-.08,1.55-.24,2.29-.47,1.32-.4,2.41-.93,3.47-1.45l.63-.31c.84-.42,1.63-.81,2.36-1.1.83-.33,1.7-.56,2.59-.68.49-.07.99-.1,1.55-.1.37,0,.77.01,1.27.04h.22c.52.04,1.05.07,1.62.07h.19c.62,0,1.28-.04,1.9-.11,1.36-.16,2.62-.46,3.78-.77l2.04-.55.14.09s1.24.58,1.38.65c-.14.06-.28.11-.42.17-.58.27-2.01.93-2.01.93-1.09.51-2.2,1.03-3.32,1.52ZM206.01,346.76c.02-.28.03-.56.04-.86.02-.51.04-.99.11-1.48.17-1.5.52-2.96,1.04-4.33.33-.84.72-1.64,1.16-2.4l.24.27.06.09c.1.14.21.27.37.43l.04.05.29.2c.05.03.23.17.23.17.29.2.59.32.88.36,5.81,1.94,12.13,3.51,20.5,5.07,3.65.68,7.01,1.25,10.3,1.74,1.72.26,3.49.54,5.41.67.41.03.91.06,1.36.06.15,0,.3,0,.46,0,.38,0,.77-.02,1.11-.06,1.03-.1,2.02-.27,2.94-.5.09-.02.18-.04.27-.07l-.03.15c-.24,1.12-.49,2.28-.7,3.4-.42.21-.86.42-1.28.63-1.15.55-2.34,1.09-3.53,1.59-2.28.96-4.63,1.83-6.96,2.58-2.01.52-3.83.8-5.56.83l-.66.02-1.35-.07-1.35-.17-.8-.13-1.57-.25c-3.65-.57-7.95-1.32-12.13-2.51-4.35-1.27-7.85-2.83-10.69-4.76-.08-.06-.15-.11-.23-.16l.03-.56ZM252.08,334l-.04.25c-.08.52-.19,1.07-.3,1.65l.42.08s0,0,0,0l-.45.05-.14.69c-.09.45-.17.9-.25,1.34l-.04.23-.06.2v.22c0,.05,0,.11,0,.13-.03.25-.04.5-.06.72-.02.25-.03.51-.03.74,0,.23-.01.46,0,.66-.2,0-.39.01-.59.01-.34,0-.69-.01-1.09-.04-.07,0-.15,0-.23-.02-.12-.01-.24-.02-.41-.03-.18,0-.36,0-.55-.02-.37-.01-.75-.05-1.14-.08-.76-.07-1.6-.18-2.6-.34l2.5-2.38c.1-.09.21-.2.39-.39.15-.16.34-.39.5-.63.15-.23.29-.49.41-.79l.04-.1c.12-.39.23-.82.24-1.28,0-.11,0-.22,0-.41,0-.1,0-.19,0-.21l-.03-.34-.88-8.36,2.62-2.25c.4-.34.81-.69,1.27-1.14.38-.38.68-.72.96-1.08.33-.44.64-.95.87-1.45.38-.84.58-1.59.73-2.2l.63-2.52c.06-.23.12-.48.16-.74l.14-1,.27-1.98.28-2.22c.16-.11.33-.22.5-.33.34-.22.69-.45,1.03-.7l5.46-3.99c.06-.06.12-.12.18-.18l1.7-1.77c.91-.99.61-1.84.34-2.26-.32-.51-.83-.79-1.42-.79-.24,0-.48.04-.79.14l-2.3.76c-.08.03-.16.05-.32.12l-1.64.88c-.24-.56-.5-1.1-.76-1.62-.37-.74-.76-1.46-1.16-2.13l-.13-.22c-.08-.15-.21-.36-.33-.54-.28-.42-.57-.76-.89-1.06-.73-.67-1.68-1.08-2.68-1.15-.11,0-.22-.01-.33-.01-.83,0-1.66.2-2.39.57l-.29.15-2.74,1.49c.66-5.79.5-11.65.29-16.75.25-.08.48-.16.71-.23.97-.3,1.93-.55,2.94-.75,2.76-.55,5.68-.73,8.77-.91h.11c1.42-.09,2.89-.18,4.37-.31,2.85-.26,5.18-.63,7.33-1.18,2.75-.7,5.22-1.73,7.34-3.04.04-.02.08-.05.12-.07l.05.02.09.35c.16.6.32,1.2.48,1.78.18.7.37,1.43.42,2,.05.51.02.85-.13,1.38-.14.51-.37,1.13-.62,1.83l-.13.37-2.67,7.45-.9,2.53c-.36,1.06-.59,2.07-.77,2.88l-.17.78c-.31,1.39-.6,2.71-1.04,3.76-.39,1.01-1.36,2.12-2.36,3.18-.49.51-1,1.01-1.54,1.55l-.09.09c-.68.67-1.39,1.37-2.08,2.11-.66.68-1.32,1.48-1.99,2.38-.6.89-1.23,1.85-1.64,3.01-.22.5-.33.99-.44,1.48l-.1.44c-.04.24-.06.49-.08.74l-.06.71c0,.14,0,.3,0,.45v.15c.04.64.15,1.28.33,1.95.13.52.29.98.42,1.38l.03.1c.24.7.47,1.4.51,1.79,0,.07,0,.13,0,.17v.02c-.15.19-.55.59-1.22,1.08-.52.38-1.14.79-1.94,1.28l-2.25,1.34c-.37.22-.8.48-1.26.79-.45.3-.84.59-1.3.97-.38.3-.86.72-1.28,1.24-.4.46-.77.97-1.1,1.52-.3.5-.56,1.06-.82,1.72-.2.56-.36,1.11-.47,1.6-.21.92-.35,1.79-.47,2.55ZM284.53,267.22c.25-.41.49-.83.71-1.26l57.71,22.11c-.44.68-.87,1.34-1.29,1.99l-57.23-21.92c-.06-.16-.13-.31-.2-.45.11-.16.21-.31.3-.46ZM286.75,257.52c.3-.2.61-.39.93-.58,1.06-.66,2.16-1.34,3.27-2.26.88-.74,1.58-1.44,2.12-2.16.56-.73,1.06-1.54,1.54-2.49.57-1.14,1-2.23,1.41-3.29.17-.43.33-.85.5-1.27.14-.33.28-.65.42-.96.11-.24.25-.52.41-.8.29-.5.61-.95.96-1.32.34-.36.69-.63,1.03-.81l.25-.12c.15-.08.32-.16.48-.26.41-.26.75-.52,1.02-.8.31-.31.59-.66.78-.99.49-.55.93-1.14,1.31-1.75,1.77,1.13,4.38,2.53,8.17,4.36l36.5,17.66.31.13c.24.1.48.21.72.28.28.1.59.2.86.26.32.09.64.15.92.19.53.08,1.07.13,1.61.13,1.95,0,3.84-.54,5.46-1.57.16-.1.3-.19.42-.28-.29.7-.57,1.39-.87,2.08-3.09,7.3-6.7,14.48-10.75,21.34l-59.66-22.86c0-.25,0-.5-.03-.75-.02-.38-.08-.73-.17-1.07l.07-.04ZM350.97,240.6l-31.34-15.01c-1.26-.6-2.42-1.14-3.45-1.6l-5.01-2.77c-.02-.28-.03-.49-.02-.66,0-.17.04-.33.1-.55.07-.25.17-.55.27-.84l.09-.26c.22-.63.5-1.42.6-2.41.07-.69.01-1.39-.17-2.01-.14-.51-.32-.89-.46-1.19l-.07-.16c.01-.07.04-.18.09-.34.12-.41.23-.84.31-1.28.11-.5.17-1.03.18-1.57.02-.98-.12-1.98-.4-2.97-.13-.46-.3-.92-.49-1.36-.23-.53-.45-.96-.68-1.31-.78-1.23-1.66-2.21-2.37-2.96,0-.41-.02-.83-.08-1.25-.22-1.43-.78-2.78-1.57-3.78-.29-.41-.59-.79-.88-1.15l-.08-.1c-.31-.4-.63-.8-1-1.22-.7-.8-1.67-1.8-3.06-2.47-.39-.18-.79-.33-1.21-.44.47-.85.91-1.65,1.33-2.44.29-.54.64-1.22.87-2.04.33-1.1.3-2.3-.08-3.28-.24-.65-.6-1.21-1.08-1.69-.29-.27-.59-.49-.93-.67-.35-.18-.68-.3-1.01-.37-.3-.07-.6-.1-.91-.1-.39,0-.77.05-1.15.15-.49.13-.96.33-1.46.63-.81.5-1.42,1.07-1.86,1.53l-1.22,1.29c-.83.89-1.63,1.77-2.39,2.62-1.58,1.77-3.12,3.59-4.6,5.4-.76.94-1.51,1.88-2.21,2.79l-1.08,1.41-.17.23c-.19.25-.39.51-.58.78-.17-.06-.34-.1-.52-.15l-.14-.04c-.67-.18-1.35-.32-2.02-.42-.69-.09-1.32-.14-1.92-.14-.87,0-1.68.09-2.48.28-.92.22-1.75.58-2.47,1.07-.83.58-1.52,1.41-1.96,2.32-.26.54-.44,1.12-.55,1.73-.58-.32-1.23-.66-1.94-1.02l-2.3-1.15,35.6-38.18.66-.69s69.8,28.06,69.8,28.06c0,.53,0,1.05,0,1.58,0,9.99-.82,20-2.42,29.75l-18.11,20.45ZM333.36,155.61l36.48,10.02c.19,1.42.37,2.85.53,4.28l-37.01-14.3ZM315.67,143.77c.88-8.54,1.7-17.23,2.43-25.84l.17-1.97c.15-1.76.3-3.58.42-5.38l.44-7.33c.27-4.74.52-9.68.76-14.67v-.17c.06-1.17.12-2.37.14-3.6.01-1.37.02-2.61-.03-3.92-.12-2.29-.42-5.3-1.68-8.29-1.18-2.96-3.42-5.53-6.14-7.08-1.23-.72-2.59-1.28-4.16-1.72-1.22-.34-2.5-.6-4.04-.81-1.28-.18-2.52-.29-3.73-.39l-14.65-1.29c-.58-.06-1.15-.09-1.73-.12l-8.63-.43v-.08c-.05-.37-.1-.74-.17-1.19-.33-1.55-1.02-3-2.05-4.31-1.03-1.3-2.29-2.31-3.76-3-.31-.13-.63-.25-.95-.37l-.23-.08c-.11-.03-.21-.06-.32-.08-.06-.61-.17-1.18-.33-1.71-.45-1.55-1.29-3.01-2.43-4.23-1.17-1.25-2.61-2.18-4.21-2.71l-.34-.09c-.28-.08-.58-.15-.96-.22h-.02s-.38-.69-.38-.69c-.14-.26-.29-.54-.49-.78l-.64-.87c-.17-.21-.35-.4-.53-.6l-.62-.66c-.08-.08-.17-.16-.29-.26l-.99-.85c-.16-.11-.31-.23-.46-.34-.37-.27-.78-.58-1.19-.82-2.32-1.47-4.71-2.44-6.96-3.31-.56-.22-1.78-.68-1.78-.68-1.66-.62-3.22-1.21-4.71-1.89-1.22-.56-2.43-1.2-3.77-1.91-.82-.44-1.66-.88-2.51-1.3-1.94-.97-4.53-2.16-7.4-2.74-1.38-.28-2.8-.42-4.23-.42-1.33,0-2.67.12-3.99.37-1.24.24-2.39.58-3.42,1.04-.58-.37-1.22-.75-1.91-1.13-1.58-.85-3.08-1.53-4.59-2.07-1.88-.66-3.58-1.04-5.2-1.17-.44-.04-.88-.06-1.31-.06-1.56,0-3.04.24-4.39.7-.92.31-1.82.73-2.68,1.25-.81.5-1.49,1.03-2.13,1.54-.52.41-1.08.84-1.56,1.13-.46.27-.84.43-1.3.53-.8.19-1.78.22-2.71.22-.33,0-1.69-.01-1.69-.01-1.57,0-3.26.08-5.04.7-.99.36-1.96.91-2.82,1.59-.79.62-1.46,1.3-2,1.89l-.55.6c-.82.9-1.54,1.68-2.3,2.19-.04.03-.08.05-.15.09l-.13.08s-.1.05-.18.08l-.09.04c-.13.07-.32.12-.53.18-.31.08-.67.14-1.13.22-.31.05-.64.11-.99.18-.48.1-.98.22-1.54.43l-.67.27-.39.17c-.1.05-.2.1-.3.16l-.24.14c-.4.23-.82.47-1.18.78l-.62.48-.53.51c-1.42,1.4-2.39,2.95-3.2,4.3-.24.4-.47.8-.7,1.2-.53.93-1.04,1.8-1.58,2.61-.76,1.15-1.54,2.02-2.37,2.65-.45.34-1.01.68-1.62,1.04-.68.41-1.44.87-2.22,1.43-.4.29-.79.61-1.14.94-.31.28-.56.56-.8.84l-.31.36c-.64.85-1.16,1.71-1.53,2.54-.71,1.54-1.11,3.02-1.5,4.46l-.11.39c-.36,1.35-.73,2.74-1.26,3.86-.26.56-.53,1.01-.88,1.48-.27.36-.57.74-.88,1.13l-.47.59c-.53.67-1.08,1.4-1.56,2.28-.24.42-.46.91-.68,1.51-.2.56-.3,1.11-.4,1.7-.26,2.15.2,4.03.59,5.62.33,1.3.67,2.65.62,3.58v.14c-.03.17-.05.33-.1.49l-.02.11c-.02.11-.09.28-.19.5-.09.2-.21.42-.35.7-.21.39-.47.88-.7,1.44-.23.53-.41,1.13-.49,1.67-.06.29-.12.62-.13.96v.19c-.02.22-.03.44-.02.68.05,1.01.27,2.02.72,3.18.58,1.41,1.31,2.61,1.96,3.67l.46.76c.57.95,1.26,2.18,1.51,3.3.14.63.16,1.41.18,2.32.01.6.03,1.22.08,1.91.1,1.19.32,2.17.69,3.09l.11.24c.08.19.18.4.31.61l.46.75c.32.42.67.87,1.08,1.24.68.65,1.44,1.22,2.34,1.76.19.11.37.22.56.33l-59.39,23.45c-.56-.03-1.11-.06-1.66-.08-2.01-.11-4.05-.17-6.05-.17-.76,0-1.52,0-2.28.02-6.57.15-12.11,1.09-16.96,2.85-3,1.11-5.67,2.5-7.97,4.13-2.65,1.93-4.81,4.13-6.44,6.54-.83,1.19-1.59,2.51-2.25,3.93-1.83.72-18.7,7.38-18.82,7.43-.45.17-.96.37-1.33.68-.14.1-.24.19-.31.27l-.09.09c-.07.06-.18.17-.35.4-.08.1-.19.25-.27.41-.18.32-.27.59-.36.83-.02.06-.04.12-.05.19l-.22.19.12.59c0,.19,0,.36.02.48l.22,7.68c0,.32.04.67.09.96.11.66.33,1.3.64,1.9.62,1.19,1.62,2.18,2.84,2.8.44.21.7.31.93.39l4.85,1.86v38.63c0,3.68,2.36,6.94,6.02,8.3,3.46,1.29,7.09,2.05,10.81,2.28l3.9,25.7c.39,2.58.76,5.01.97,7.45.24,2.91.19,5.23-.15,7.31-.06.45-.16.89-.27,1.37l-.06.27-.08.26c-.13.45-.26.91-.44,1.37l-.13.36-.23.5-.03.02-.35.46c-.39.52-.74,1.01-1.07,1.5l-.17.25c-.12.18-.24.35-.35.53l-.08.12c-.07.1-.13.21-.23.38-.08.15-.15.31-.21.44-.29.61-.54,1.19-.76,1.77-1.09,2.8-1.56,5.53-1.38,8.11.17,2.66,1.02,5.4,2.44,7.94.64,1.14,1.41,2.26,2.29,3.33.91,1.1,1.86,2.07,2.81,2.86,1.8,1.52,3.85,2.88,6.28,4.14l.28,1.55.08.37c.11.55.24,1.24.49,1.87.27.79.63,1.57,1.06,2.32.41.74,1,1.49,1.74,2.25.62.6,1.36,1.16,2.2,1.65,1.13.66,2.18,1.09,3.21,1.52l13.64,5.72.49.57.42.45c.34.36.69.74,1.04,1.06,1.93,1.9,4.24,3.52,6.86,4.83,1.09.56,2.31,1.07,3.85,1.62,1.2.41,2.5.78,3.99,1.11,1.67.36,3.42.59,5.19.7l.44.16c.28.1.55.2.86.34,1.11.44,2.24.94,3.44,1.51l.38.19c.45.23.92.46,1.36.65l1.68.82,1.65.87,1.62.93,1.58.98,1.55,1.04,1.58,1.13c.32.21.63.44.96.68,0,0,.65.46.69.5-3.81.53-7.65,1.13-11.43,1.79-3.69.64-7.55,1.38-11.46,2.19-1.21.26-2.46.53-3.74.83-14.04-7.99-26.99-17.88-38.5-29.39-16.63-16.63-29.69-36-38.82-57.57-9.44-22.32-14.23-46.04-14.23-70.5s4.79-48.17,14.23-70.49c9.12-21.57,22.18-40.94,38.82-57.57,16.63-16.63,36-29.69,57.57-38.82,22.32-9.44,46.04-14.23,70.49-14.23s48.17,4.79,70.5,14.23c21.57,9.12,40.94,22.18,57.57,38.82,16.63,16.63,29.69,36,38.82,57.57,5.23,12.36,9.06,25.29,11.41,38.44l-53.02-14.57ZM117.25,352.04c6.58-1.06,13.35-1.93,20.14-2.61v.65s0,.23,0,.23c0,.16.01.31.03.47v.15c.19,1.57.87,3.08,1.94,4.26.31.33.59.59.84.78.14.11.28.22.43.32l.4.27c.39.25.81.51,1.28.78.07.04.14.08.21.12-3.58-.9-7.3-1.37-11.06-1.37-1.04,0-2.08.04-3.11.11-2.95.19-5.94.5-8.9.9-2.88-1.23-5.77-2.55-8.62-3.94,2.23-.4,4.34-.76,6.42-1.1ZM188.41,361.12c2.19.24,4.38.65,6.51,1.22.26.07.53.14.84.24.26.08.51.15.77.22l.11.02c.33.06.66.13,1.01.21l.62.14c.33.07.65.16,1,.25h.04c.02.17.04.33.06.5.09.66.2,1.33.32,2l.2,1.01c.08.35.17.79.36,1.3.23.65.67,1.34,1.13,1.81.46.49.93.81,1.3,1.05.01,0,.02.01.04.02-2.21.15-4.44.26-6.65.32-1.44-1.39-2.89-2.76-4.33-4.05-2.63-2.33-5.34-4.52-8.07-6.51,1.58,0,3.18.09,4.74.26ZM354.55,252.11c-.05.06-.09.11-.14.15l-.16.17-.09.08s-.08.08-.14.11l-.09.07s-.09.06-.17.11c-.44.28-.97.43-1.5.43-.15,0-.3-.01-.5-.04-.05,0-.1-.02-.16-.03l-.1-.02-.15-.05-.34-.13-36.45-17.63c-2.86-1.38-5.15-2.41-6.95-3.12.04-.05.09-.1.13-.15.54-.6,1.06-1.27,1.56-1.99.37-.56.77-1.23,1.11-1.98,1.52.89,3.62,1.98,6.42,3.32l31.38,15.03c.84.4,1.79.61,2.74.61.43,0,.86-.04,1.27-.13,1.35-.27,2.6-.99,3.51-2.01l10.8-12.16c-.63,2.64-1.32,5.26-2.07,7.83l-9.93,11.54Z"/>
  <path class="cls-1" d="M216.88,106.19c.38,0,.66-.15.87-.27.08-.05.19-.12.33-.22.17-.12.41-.29.74-.49.24-.15.53-.32.77-.43.22-.09.43-.2.66-.32.11-.06.21-.11.38-.19.15-.08.33-.15.53-.23l.24-.1.27-.09c.2-.07.38-.13.63-.19.55-.15,1.16-.22,1.69-.27.21,0,.41,0,.66-.01.18,0,.35,0,.52,0,.24,0,.44,0,.65.03.63.06,1.16.17,1.68.34.45.13.92.34,1.5.67.46.27.9.6,1.35.99.51.48.86.88,1.16,1.31.64.87,1.13,1.92,1.4,3.05.24,1.07.25,2.16.04,3.34-.29,1.53-.6,2.84-.93,4-.36,1.26-.79,2.55-1.36,4l-.04.15c-.36,1.72.07,2.75,1.4,3.34.3.13.66.28,1.11.28,1.15,0,1.89-.93,2.38-1.7l.06-.14c.58-1.37,1.1-2.81,1.59-4.42.23-.75.43-1.51.62-2.26.1-.38.19-.77.28-1.21.08-.45.15-.86.19-1.24.13-1.02.16-1.86.12-2.65-.03-.84-.17-1.72-.44-2.77-.52-1.81-1.34-3.43-2.44-4.8-1.13-1.44-2.51-2.62-4.08-3.5-1.61-.89-3.41-1.41-5.21-1.51-.28-.02-.55-.03-.83-.03-.67,0-1.32.06-1.95.18-.76.16-1.64.38-2.5.75-1.89.76-3.35,1.81-4.33,3.1-.54.68-.75,1.11-.9,1.4-.33.69-.21,1.37.32,1.8.32.26.65.32.88.32Z"/>
  <path class="cls-1" d="M211.42,117.78c.07.88.23,1.76.48,2.61.23.84.54,1.68.92,2.47.16.35.34.68.53,1.02l.12.22.11.17c.21.31.43.64.66.92.53.7,1.15,1.36,1.84,1.98.8.71,1.5,1.21,2.27,1.63,1.11.6,2.17.89,3.23.9h.05c.44,0,.86-.12,1.2-.34.36-.22.63-.53.79-.93.23-.59.1-1.12,0-1.48-.11-.44-.45-1.77-1.88-1.91h-.11c-.27-.01-.64-.14-1.03-.36-.41-.23-.87-.58-1.37-1.04-.3-.27-.58-.57-.86-.91.46-.34.82-.7,1.1-1,.71-.78,1.34-1.61,1.93-2.54.56-.89,1.04-1.84,1.43-2.82.19-.47.4-1.04.53-1.64.16-.71.22-1.38.17-2.05-.05-.66-.25-1.61-.91-2.45-.57-.75-1.46-1.31-2.39-1.51-.35-.08-.7-.12-1.06-.12-.46,0-.93.07-1.39.2-.68.2-1.31.54-1.94,1.04-.46.37-.88.8-1.28,1.3-.1-.02-.19-.03-.29-.03-.2,0-.39.04-.6.12-.38.16-.74.45-1.11.9-.16.2-.31.42-.46.66l-.05.09c-.12.23-.19.46-.25.65l-.05.15c-.13.44-.24.91-.31,1.38-.07.49-.12.94-.13,1.39v.33c.01.34.02.68.06,1Z"/>
  <path class="cls-1" d="M236.56,132.08c-.49.78-.88,1.64-1.16,2.57-.07.26-.12.52-.15.8-.28.15-.51.37-.67.66-.16.3-.31.8-.16,1.5.07.36.17.74.32,1.16.06.19.13.37.2.54.08.2.17.36.25.49l.32.56c.22.38.43.74.6,1.1.37.71.49,1.37.36,1.91-.09.38-.5.8-1.14,1.17-.29.17-.66.32-1.11.43-.46.12-.9.19-1.38.21-.48.05-.88.26-1.15.6-.12.15-.22.32-.31.56l-.03.13c-.03.12-.05.26-.07.38-.03.24-.05.46-.04.69,0,.19,0,.4.02.62.01.22.03.44.06.62.04.28.09.52.18.77.05.14.11.28.22.49l.09.13c.14.18.32.33.52.45.28.16.6.24.92.24.14,0,.29-.02.39-.04,1.56-.29,3.03-.88,4.49-1.81.8-.53,1.47-1.15,2-1.82.65-.83,1.11-1.83,1.27-2.81.18-1.05.12-2.05-.16-2.97-.06-.21-.14-.42-.22-.63,1.02-1.05,1.87-2.32,2.48-3.7.36-.83.64-1.7.81-2.57.12-.58.17-1.14.14-1.68-.05-.89-.31-1.63-.79-2.25-.3-.39-.68-.71-1.12-.95-.42-.23-.9-.37-1.48-.41h-.17c-.69,0-1.36.18-2.03.55-.51.28-.97.64-1.4,1.1-.38.41-.64.8-.91,1.2Z"/>
</svg>